<?xml version="1.0" encoding="UTF-8" standalone="no"?>
<!-- Created with Inkscape (http://www.inkscape.org/) -->

<svg
   width="60cm"
   height="40cm"
   viewBox="0 0 600 400"
   version="1.1"
   id="svg1"
   inkscape:version="1.4 (86a8ad7, 2024-10-11)"
   sodipodi:docname="torbogen_NEU.svg"
   xmlns:inkscape="http://www.inkscape.org/namespaces/inkscape"
   xmlns:sodipodi="http://sodipodi.sourceforge.net/DTD/sodipodi-0.dtd"
   xmlns="http://www.w3.org/2000/svg"
   xmlns:svg="http://www.w3.org/2000/svg">
  <sodipodi:namedview
     id="namedview1"
     pagecolor="#ffffff"
     bordercolor="#000000"
     borderopacity="0.25"
     inkscape:showpageshadow="2"
     inkscape:pageopacity="0.0"
     inkscape:pagecheckerboard="0"
     inkscape:deskcolor="#d1d1d1"
     inkscape:document-units="mm"
     inkscape:zoom="0.35355339"
     inkscape:cx="117.37973"
     inkscape:cy="595.38391"
     inkscape:window-width="1920"
     inkscape:window-height="1166"
     inkscape:window-x="-11"
     inkscape:window-y="-11"
     inkscape:window-maximized="1"
     inkscape:current-layer="layer1"
     showguides="true" />
  <defs
     id="defs1" />
  <g
     inkscape:label="Ebene 1"
     inkscape:groupmode="layer"
     id="layer1">
    <path
       style="fill:none;fill-rule:evenodd;stroke:#ff0000;stroke-width:0.0993107;paint-order:fill markers stroke"
       d="m 3.4887254,395.48872 v -7.90078"
       id="path29"
       sodipodi:nodetypes="cc" />
    <path
       style="fill:none;fill-rule:evenodd;stroke:#ff0000;stroke-width:0.0993107;paint-order:fill markers stroke"
       d="m 50.590155,395.55272 v -8"
       id="path28" />
    <path
       style="fill:none;fill-rule:evenodd;stroke:#ff0000;stroke-width:0.0993107;paint-order:fill markers stroke"
       d="m 50.638635,395.49642 h -8.93567"
       id="path27" />
    <path
       style="fill:none;fill-rule:evenodd;stroke:#ff0000;stroke-width:0.0993107;paint-order:fill markers stroke"
       d="m 41.823965,397.40388 h -8.93567"
       id="path26" />
    <path
       style="fill:none;fill-rule:evenodd;stroke:#ff0000;stroke-width:0.0993107;paint-order:fill markers stroke"
       d="m 41.763965,397.44816 v -1.9938"
       id="path25" />
    <path
       style="fill:none;fill-rule:evenodd;stroke:#ff0000;stroke-width:0.0993107;paint-order:fill markers stroke"
       d="m 32.949815,397.44435 v -1.9938"
       id="path24" />
    <path
       style="fill:none;fill-rule:evenodd;stroke:#ff0000;stroke-width:0.0993107;paint-order:fill markers stroke"
       d="m 33.005105,395.47762 h -8.93568"
       id="path23" />
    <path
       style="fill:none;fill-rule:evenodd;stroke:#ff0000;stroke-width:0.0993107;paint-order:fill markers stroke"
       d="m 32.945105,395.43334 v 1.9938"
       id="path22" />
    <path
       style="fill:none;fill-rule:evenodd;stroke:#ff0000;stroke-width:0.0993107;paint-order:fill markers stroke"
       d="m 24.188855,397.38727 h -8.93567"
       id="path21" />
    <path
       style="fill:none;fill-rule:evenodd;stroke:#ff0000;stroke-width:0.0993107;paint-order:fill markers stroke"
       d="m 24.128855,397.43153 v -1.99379"
       id="path20" />
    <path
       style="fill:none;fill-rule:evenodd;stroke:#ff0000;stroke-width:0.0993107;paint-order:fill markers stroke"
       d="M 15.374195,395.47981 H 3.4950354"
       id="path19"
       sodipodi:nodetypes="cc" />
    <path
       style="fill:none;fill-rule:evenodd;stroke:#ff0000;stroke-width:0.0993107;paint-order:fill markers stroke"
       d="m 15.314195,395.43553 v 1.9938"
       id="path18" />
    <path
       style="fill:none;fill-rule:evenodd;stroke:#ff0000;stroke-width:0.0993107;paint-order:fill markers stroke"
       d="m 50.637185,387.60108 h -8.93567"
       id="path17" />
    <path
       style="fill:none;fill-rule:evenodd;stroke:#ff0000;stroke-width:0.0993107;paint-order:fill markers stroke"
       d="m 41.822515,385.69362 h -8.93567"
       id="path16" />
    <path
       style="fill:none;fill-rule:evenodd;stroke:#ff0000;stroke-width:0.0993107;paint-order:fill markers stroke"
       d="m 41.762515,385.64934 v 1.9938"
       id="path15" />
    <path
       style="fill:none;fill-rule:evenodd;stroke:#ff0000;stroke-width:0.0993107;paint-order:fill markers stroke"
       d="m 32.948365,385.65315 v 1.9938"
       id="path14" />
    <path
       style="fill:none;fill-rule:evenodd;stroke:#ff0000;stroke-width:0.0993107;paint-order:fill markers stroke"
       d="m 33.003655,387.61988 h -8.93568"
       id="path13" />
    <path
       style="fill:none;fill-rule:evenodd;stroke:#ff0000;stroke-width:0.0993107;paint-order:fill markers stroke"
       d="m 32.943655,387.66416 v -1.9938"
       id="path12" />
    <path
       style="fill:none;fill-rule:evenodd;stroke:#ff0000;stroke-width:0.0993107;paint-order:fill markers stroke"
       d="m 24.187405,385.71023 h -8.93567"
       id="path11" />
    <path
       style="fill:none;fill-rule:evenodd;stroke:#ff0000;stroke-width:0.0993107;paint-order:fill markers stroke"
       d="m 24.127405,385.66597 v 1.99379"
       id="path10" />
    <path
       style="fill:none;fill-rule:evenodd;stroke:#ff0000;stroke-width:0.0993107;paint-order:fill markers stroke"
       d="M 15.372745,387.61769 H 3.4770454"
       id="path9"
       sodipodi:nodetypes="cc" />
    <path
       style="fill:none;fill-rule:evenodd;stroke:#ff0000;stroke-width:0.0993107;paint-order:fill markers stroke"
       d="m 15.312745,387.66197 v -1.9938"
       id="path2-8-0-8-2-4-2" />
    <path
       id="path2-8-9-00"
       style="fill:none;fill-rule:evenodd;stroke:#ff0000;stroke-width:0.124577;paint-order:fill markers stroke"
       d="m 110.42058,374.32192 v 1.99403 m 0.0944,-1.94976 H 98.468841 m 25.820779,1.95196 v -1.99403 m 0.0944,1.94975 H 110.32456 M 136.2505,374.364 h -12.05441"
       sodipodi:nodetypes="cccccccccc" />
    <path
       id="path2-8-9-00-3"
       style="fill:none;fill-rule:evenodd;stroke:#ff0000;stroke-width:0.0940114;paint-order:fill markers stroke"
       d="m 136.19518,374.42123 v -8"
       sodipodi:nodetypes="cc" />
    <path
       id="path2-8-9-00-3-5"
       style="fill:none;fill-rule:evenodd;stroke:#ff0000;stroke-width:0.0940113;paint-order:fill markers stroke"
       d="m 98.509991,374.41984 v -8"
       sodipodi:nodetypes="cc" />
    <path
       id="path2-8-9-8"
       style="fill:none;fill-rule:evenodd;stroke:#ff0000;stroke-width:0.124577;paint-order:fill markers stroke"
       d="m 110.41144,366.52732 v -1.99403 m 0.0944,1.94976 H 98.463711 m 25.816769,-1.95196 v 1.99403 m 0.0944,-1.94975 h -14.05946 m 25.92593,1.90987 h -12.05441"
       sodipodi:nodetypes="cccccccccc" />
    <path
       id="path2-8-9-00-4"
       style="fill:none;fill-rule:evenodd;stroke:#ff0000;stroke-width:0.124577;paint-order:fill markers stroke"
       d="m 80.425748,374.06708 v -1.99403 m -0.0944,1.94976 h 12.04614 m -25.820781,-1.95196 v 1.99403 m -0.0944,-1.94975 H 80.521768 M 54.595837,374.025 h 12.05441"
       sodipodi:nodetypes="cccccccccc" />
    <path
       id="path2-8-9-00-3-8"
       style="fill:none;fill-rule:evenodd;stroke:#ff0000;stroke-width:0.0940114;paint-order:fill markers stroke"
       d="m 54.651147,373.96777 v 8"
       sodipodi:nodetypes="cc" />
    <path
       id="path2-8-9-00-3-5-6"
       style="fill:none;fill-rule:evenodd;stroke:#ff0000;stroke-width:0.0940113;paint-order:fill markers stroke"
       d="m 92.336338,373.96916 v 8"
       sodipodi:nodetypes="cc" />
    <path
       id="path2-8-9-8-5"
       style="fill:none;fill-rule:evenodd;stroke:#ff0000;stroke-width:0.124577;paint-order:fill markers stroke"
       d="m 80.434888,381.86168 v 1.99403 m -0.0944,-1.94976 h 12.04213 m -25.816771,1.95196 v -1.99403 m -0.0944,1.94975 h 14.059471 m -25.925941,-1.90987 h 12.05441"
       sodipodi:nodetypes="cccccccccc" />
    <path
       id="path2-8-9-00-39"
       style="fill:none;fill-rule:evenodd;stroke:#ff0000;stroke-width:0.10378;paint-order:fill markers stroke"
       d="m 147.00534,352.48399 h 1.99505 m -1.95076,-0.0655 v 7.74698 m 1.95296,-17.30145 h -1.99505 m 1.95074,-0.0655 v 9.75203 m -1.91084,-17.3742 v 7.75253"
       sodipodi:nodetypes="cccccccccc" />
    <path
       id="path2-8-9-00-3-6"
       style="fill:none;fill-rule:evenodd;stroke:#ff0000;stroke-width:0.0782256;paint-order:fill markers stroke"
       d="m 147.09893,335.21605 h -7.98548"
       sodipodi:nodetypes="cc" />
    <path
       id="path2-8-9-00-3-5-7"
       style="fill:none;fill-rule:evenodd;stroke:#ff0000;stroke-width:0.0783166;paint-order:fill markers stroke"
       d="M 147.11468,360.15546 H 139.1106"
       sodipodi:nodetypes="cc" />
    <path
       id="path2-8-9-8-9"
       style="fill:none;fill-rule:evenodd;stroke:#ff0000;stroke-width:0.10378;paint-order:fill markers stroke"
       d="m 139.20676,352.49033 h -1.99505 m 1.95076,-0.0655 v 7.76767 m -1.95296,-17.32214 h 1.99505 m -1.95074,-0.0655 v 9.75203 m 1.91084,-17.38313 v 7.76145"
       sodipodi:nodetypes="cccccccccc" />
    <path
       id="path2-8-9-00-39-8"
       style="fill:none;fill-rule:evenodd;stroke:#ff0000;stroke-width:0.10378;paint-order:fill markers stroke"
       d="m 100.6887,353.1824 h 1.99505 m -1.95076,-0.0655 v 7.74698 m 1.95296,-17.30145 h -1.99505 m 1.95074,-0.0655 v 9.75203 m -1.91084,-17.37418 v 7.75251"
       sodipodi:nodetypes="cccccccccc" />
    <path
       id="path2-8-9-00-3-6-9"
       style="fill:none;fill-rule:evenodd;stroke:#ff0000;stroke-width:0.0782256;paint-order:fill markers stroke"
       d="M 100.78229,335.91447 H 92.796812"
       sodipodi:nodetypes="cc" />
    <path
       id="path2-8-9-00-3-5-7-3"
       style="fill:none;fill-rule:evenodd;stroke:#ff0000;stroke-width:0.0783166;paint-order:fill markers stroke"
       d="M 100.79804,360.85387 H 92.793962"
       sodipodi:nodetypes="cc" />
    <path
       id="path2-8-9-8-9-4"
       style="fill:none;fill-rule:evenodd;stroke:#ff0000;stroke-width:0.10378;paint-order:fill markers stroke"
       d="m 92.890122,353.18874 h -1.99505 m 1.95076,-0.0655 v 7.76767 m -1.95296,-17.32214 h 1.99505 m -1.95074,-0.0655 v 9.75203 m 1.91084,-17.38312 v 7.76144"
       sodipodi:nodetypes="cccccccccc" />
    <path
       id="path2-8-06-1-4"
       style="fill:none;fill-rule:evenodd;stroke:#ff0000;stroke-width:0.124839;paint-order:fill markers stroke"
       d="m 304.49801,317.2955 h 1.94533 m -1.90213,-0.0972 v 12.47829 m 1.90427,-26.65708 h -1.94532 m 1.90213,-0.0972 v 14.47196 m -1.90642,-28.65329 h 1.94533 m -1.90213,-0.0972 v 14.47195 m -0.0298,-28.65053 h 1.94533 m -1.94905,-14.27501 h 1.94533 m -1.90213,-0.0972 v 14.47195 m 1.90428,-28.65072 h -1.94532 m 1.90213,-0.0972 v 14.47195 m -1.90642,-28.65331 h 1.94533 m -1.90213,-0.0972 v 14.47196 m 1.86201,28.35938 v 14.47196 m 0.043,-57.20569 h -1.94533 m 1.94905,-14.27513 h -1.94533 m 1.90213,-0.0972 v 14.47195 m -1.90428,-28.65071 h 1.94532 m -1.90213,-0.0972 v 14.47195 m 1.90642,-28.6533 h -1.94533 m 1.90213,-0.0972 v 14.47194 m 0.0298,-28.65052 h -1.94533 m 1.94905,-14.27516 h -1.94533 m 1.90213,-0.0972 v 14.47195 m -1.90428,-28.65071 h 1.94532 m -1.90213,-0.0971 v 14.47205 m 1.90642,-28.6533 h -1.94533 m 1.90213,-0.0971 v 14.47195 m -1.862,28.3594 v 14.47195 m -0.0446,-57.20491 h 1.94533 m -1.94905,-14.2751 h 1.94533 m -1.90213,-0.0971 v 14.47195 m 1.90428,-28.65081 h -1.94532 m 1.90213,-0.0972 v 14.47196 m -1.90645,-28.653291 h 1.94533 m -1.90213,-0.0972 v 14.471761 m -0.0298,-28.650531 h 1.94533 m -1.94905,-14.27513 h 1.94533 m -1.90213,-0.0972 v 14.47195 m 1.90428,-28.65073 h -1.94532 m 1.90213,-0.0972 v 14.47197 M 304.545,33.656551 v 12.485508 m 1.862,28.35941 v 14.47195 M 296.70961,317.2931 h -1.94533 m -0.002,-14.27599 h 1.94532 m -1.90213,-0.0972 v 14.47196 m 1.90642,-28.65329 h -1.94547 m 1.90213,-0.0972 v 14.47195 m 0.0298,-28.65053 h -1.94533 m 1.94905,-14.27501 h -1.94533 m 1.90213,-0.0972 v 14.47195 m -1.90428,-28.65072 h 1.94532 m -1.90213,-0.0972 v 14.47195 m 1.90642,-28.65331 h -1.94533 m 1.90213,-0.0972 v 14.47196 m -1.86201,28.35938 v 14.47196 m -0.043,-57.20569 h 1.94533 m -1.94905,-14.27513 h 1.94533 m -1.90213,-0.0972 v 14.47195 m 1.90428,-28.65071 h -1.94532 m 1.90213,-0.0972 v 14.47195 m -1.90642,-28.6533 h 1.94533 m -1.90213,-0.0972 v 14.47194 m -0.0298,-28.65052 h 1.94533 m -1.94905,-14.27516 h 1.94533 m -1.90213,-0.0972 v 14.47195 m 1.90428,-28.65071 h -1.94532 m 1.90213,-0.0971 v 14.47205 m -1.90642,-28.6533 h 1.94533 m -1.90213,-0.0971 v 14.47195 m 1.862,28.3594 v 14.47195 m 0.0446,-57.20491 h -1.94533 m 1.94905,-14.2751 h -1.94533 m 1.90213,-0.0971 v 14.47195 M 294.76373,103.149 h 1.94532 m -1.90213,-0.0972 v 14.47197 m 1.90645,-28.653303 h -1.94533 m 1.90213,-0.09717 v 14.471773 m 0.0298,-28.650539 h -1.94533 M 296.70369,60.3194 h -1.94533 m 1.90213,-0.09716 v 14.471952 m -1.90428,-28.65073 h 1.94532 m -1.90213,-0.09716 v 14.47197 m 0.001,14.080898 v 14.47195 m 1.90196,228.22478 v 12.50825 h 7.90039 M 296.66262,46.139762 V 33.650116 l 7.88238,0.0064"
       sodipodi:nodetypes="cccccccccccccccccccccccccccccccccccccccccccccccccccccccccccccccccccccccccccccccccccccccccccccccccccccccccccccccccccccccccccccccccccccccccccccccccccccccccccccccccccccccccccccc" />
    <path
       id="path2-8-9-8-4-5-67-9"
       style="fill:none;fill-rule:evenodd;stroke:#ff0000;stroke-width:0.103548;paint-order:fill markers stroke"
       d="m 125.79218,342.23739 h -1.99952 m 1.95513,0.0652 v -7.68148 m -1.95733,17.17208 h 1.99951 m -1.95511,0.0652 v -9.6869 m 1.91512,17.2448 v -7.68733 m 7.85729,-9.48798 h 1.99952 m 0.002,9.5558 h -1.99951 m 1.95511,0.0652 v -9.6869 m -1.91512,9.55747 v 7.69318 l -7.89949,-0.009 m 7.90188,-17.11015 v -7.68283 l -7.90387,-0.002"
       sodipodi:nodetypes="ccccccccccccccccccccc" />
    <path
       id="path2-8-9-8-4-5-67-9-6"
       style="fill:none;fill-rule:evenodd;stroke:#ff0000;stroke-width:0.103548;paint-order:fill markers stroke"
       d="m 108.8418,343.21274 h -1.99952 m 1.95513,0.0652 v -7.68148 m -1.95733,17.17208 h 1.99951 m -1.95511,0.0652 v -9.6869 m 1.91512,17.2448 v -7.68733 m 7.85729,-9.48798 h 1.99952 m 0.002,9.5558 h -1.99951 m 1.95511,0.0652 v -9.6869 m -1.91512,9.55747 v 7.69318 l -7.89949,-0.009 m 7.90188,-17.11015 v -7.68283 l -7.90387,-0.002"
       sodipodi:nodetypes="ccccccccccccccccccccc" />
    <path
       id="path2-8-9-00-3-5-7-6-0-7-0"
       style="fill:none;fill-rule:evenodd;stroke:#ff0000;stroke-width:0.0783166;paint-order:fill markers stroke"
       d="m 221.85712,345.76264 v -1.9673 M 211.298,345.7664 v -1.9673 m -0.0719,1.9236 h 10.70469 m -21.19256,-1.92577 v 1.96729 m -0.0717,-1.92361 h 10.70468 m -21.19443,1.92795 v -1.96729 m -0.0719,1.92359 h 10.70467 m -21.19241,0.0301 v -1.96729 m -10.55909,1.97105 v -1.96729 m -0.0719,1.9236 h 10.70459 m -25.45048,-1.88209 h 14.89081 m 10.41539,10e-4 h 10.70469 m 31.60549,-0.0414 v 1.94221 m 10.4245,-1.94592 v 1.94221 m 0.071,-1.89908 h -10.56826 m 20.92259,1.90122 v -1.9422 m 0.071,1.89909 h -10.56825 m 20.92425,-1.90337 v 1.94221 m 0.0711,-1.89908 h -10.56825 m 20.92225,-0.0297 v 1.94221 m 10.42452,-1.94593 v 1.94221 m 0.071,-1.89908 h -10.56824 m 20.92239,1.90122 v -1.9422 m 0.071,1.89908 h -10.56825 m 22.68197,-1.86024 h -12.25497 m -20.70966,1.85901 h -10.56825 m -31.22134,-11.67607 v 1.9673 m -10.55912,-1.97106 v 1.9673 m -0.0719,-1.9236 h 10.70469 m -21.19256,1.92577 v -1.96729 m -0.0717,1.92361 h 10.70468 m -21.19442,-1.92795 v 1.96729 m -0.0719,-1.92359 h 10.70466 m -21.1924,-0.0301 v 1.96729 m -10.55909,-1.97105 v 1.96729 m -0.0719,-1.9236 h 10.70459 m -25.43879,1.88209 h 14.87912 m 10.41539,-10e-4 h 10.70469 m 31.60548,0.0414 v -1.94221 m 10.4245,1.94592 v -1.94221 m 0.071,1.89908 H 221.7655 m 20.92259,-1.90122 v 1.9422 m 0.071,-1.89909 h -10.56825 m 20.92425,1.90337 v -1.94221 m 0.0711,1.89908 h -10.56825 m 20.92226,0.0297 v -1.94221 m 10.42452,1.94593 v -1.94221 m 0.0709,1.89908 h -10.56825 m 20.92239,-1.90122 v 1.9422 m 0.0709,-1.89908 h -10.56825 m 22.70264,1.86024 h -12.27564 m -20.70966,-1.85901 h -10.56824 m -98.78613,9.81203 v -8.00408 m 142.33136,0.0517 v 7.87417"
       sodipodi:nodetypes="cccccccccccccccccccccccccccccccccccccccccccccccccccccccccccccccccccccccccccccccccccccccccccccccccccccccccccc" />
    <path
       id="path2-8-9-00-3-5-7-6-0-7-0-8"
       style="fill:none;fill-rule:evenodd;stroke:#ff0000;stroke-width:0.0783166;paint-order:fill markers stroke"
       d="m 218.45338,25.24197 v -1.9673 m -10.55912,1.97106 v -1.9673 m -0.0719,1.9236 h 10.70469 m -21.19256,-1.92577 v 1.96729 m -0.0717,-1.92361 h 10.70468 m -21.19443,1.92795 V 23.2806 m -0.0719,1.92359 h 10.70467 m -21.19241,0.0301 V 23.267 m -10.55909,1.97105 v -1.96729 m -0.0719,1.9236 H 176.287 m -25.45048,-1.88209 h 14.89081 m 10.41539,10e-4 h 10.70469 m 31.60549,-0.0414 v 1.94221 m 10.4245,-1.94592 v 1.94221 m 0.071,-1.89908 h -10.56826 m 20.92259,1.90122 v -1.9422 m 0.071,1.89909 h -10.56825 m 20.92425,-1.90337 v 1.94221 m 0.0711,-1.89908 h -10.56825 m 20.92225,-0.0297 v 1.94221 m 10.42452,-1.94593 v 1.94221 m 0.071,-1.89908 h -10.56824 m 20.92239,1.90122 v -1.9422 m 0.071,1.89908 h -10.56825 m 22.68197,-1.86024 h -12.25497 m -20.70966,1.85901 H 249.65634 M 218.435,13.49967 v 1.9673 m -10.55912,-1.97106 v 1.9673 m -0.0719,-1.9236 h 10.70469 m -21.19256,1.92577 v -1.96729 m -0.0717,1.92361 h 10.70468 m -21.19442,-1.92795 v 1.96729 m -0.0719,-1.92359 h 10.70466 m -21.1924,-0.0301 v 1.96729 m -10.55909,-1.97105 v 1.96729 m -0.0719,-1.9236 h 10.70459 m -25.43879,1.88209 h 14.87912 m 10.41539,-0.001 h 10.70469 m 31.60548,0.0414 v -1.94221 m 10.4245,1.94592 v -1.94221 m 0.071,1.89908 h -10.56826 m 20.92259,-1.90122 v 1.9422 m 0.071,-1.89909 H 228.7871 m 20.92425,1.90337 V 13.5334 m 0.0711,1.89908 H 239.2142 m 20.92226,0.0297 v -1.94221 m 10.42452,1.94593 v -1.94221 m 0.0709,1.89908 h -10.56825 m 20.92239,-1.90122 v 1.9422 m 0.0709,-1.89908 h -10.56825 m 22.70264,1.86024 H 280.91567 M 260.20601,13.5659 h -10.56824 m -98.78613,9.81203 v -8.00408 m 142.33136,0.0517 v 7.87417"
       sodipodi:nodetypes="cccccccccccccccccccccccccccccccccccccccccccccccccccccccccccccccccccccccccccccccccccccccccccccccccccccccccccc" />
    <path
       id="path6-6-9-8-3-3"
       style="fill:none;fill-rule:evenodd;stroke:#ff0000;stroke-width:0.237954;paint-order:fill markers stroke"
       d="m 76.184627,342.12462 v -1.99735 m -0.0755,1.953 h 11.23407 m -22.24058,-1.9552 v 1.99734 m -0.0755,-1.95299 h 11.23416 m -22.31808,1.91305 h 11.23408 m 11.01004,7.71618 v 1.99735 m -0.0755,-1.953 h 11.23407 m -22.24058,1.9552 v -1.99734 m -0.0755,1.95299 h 11.23416 m -22.31808,-1.91305 h 11.23408 m -14.11689,0.20429 v -8 m 36.23251,7.91504 v -8 m -33.35196,0.11366 h -3 m 3.00693,7.76985 h -3" />
    <path
       id="path6-6-9-8-3-7"
       style="fill:none;fill-rule:evenodd;stroke:#ff0000;stroke-width:0.237954;paint-order:fill markers stroke"
       d="m 75.920047,358.66108 v -1.99735 m -0.0755,1.953 h 11.23407 m -22.24058,-1.9552 v 1.99734 m -0.0755,-1.95299 h 11.23416 m -22.31808,1.91305 h 11.23408 m 11.01004,7.71618 v 1.99735 m -0.0755,-1.953 h 11.23407 m -22.24058,1.9552 v -1.99734 m -0.0755,1.95299 h 11.23416 m -22.31808,-1.91305 h 11.23408 m -14.11689,0.20429 v -8 m 36.23251,7.91504 v -8 m -33.35196,0.11366 h -3 m 3.00693,7.76985 h -3" />
    <path
       id="path6-6-9-8-3-1"
       style="fill:none;fill-rule:evenodd;stroke:#ff0000;stroke-width:0.237954;paint-order:fill markers stroke"
       d="m 32.86695,340.97392 v -1.99735 m -0.0755,1.953 h 11.23407 m -22.24058,-1.9552 v 1.99734 m -0.0755,-1.95299 H 32.9436 m -22.31808,1.91305 H 21.8596 m 11.01004,7.71618 v 1.99735 m -0.0755,-1.953 h 11.23407 m -22.24058,1.9552 v -1.99734 m -0.0755,1.95299 H 32.94629 M 10.62821,348.6901 H 21.86229 M 7.7454,348.89439 v -8 m 36.23251,7.91504 v -8 m -33.35196,0.11366 h -3 m 3.00693,7.76985 h -3" />
    <path
       id="path6-6-9-8-3-34"
       style="fill:none;fill-rule:evenodd;stroke:#ff0000;stroke-width:0.237954;paint-order:fill markers stroke"
       d="m 32.73466,356.98122 v -1.99735 m -0.0755,1.953 h 11.23407 m -22.24058,-1.9552 v 1.99734 m -0.0755,-1.95299 h 11.23416 m -22.31808,1.91305 h 11.23408 m 11.01004,7.71617 v 1.99735 m -0.0755,-1.953 h 11.23407 m -22.24058,1.9552 v -1.99734 m -0.0755,1.95299 H 32.814 M 10.49592,364.69739 H 21.73 m -14.11689,0.20429 v -7.99999 m 36.23251,7.91503 v -7.99999 m -33.35196,0.11366 h -3 m 3.00693,7.76984 h -3" />
    <path
       id="path8"
       style="fill:none;fill-rule:evenodd;stroke:#ff0000;stroke-width:0.283163;paint-order:fill markers stroke"
       d="m 216.00893,327.34384 v 1.9673 m -10.522,-1.97106 v 1.9673 m -0.0717,-1.9236 h 10.66706 m -21.11805,1.92577 v -1.96729 m -0.0715,1.92361 h 10.66704 m -21.1199,-1.92795 v 1.96729 m -0.0716,-1.92359 h 10.66703 m -21.11789,-0.0301 v 1.96729 m -10.52197,-1.97105 v 1.96729 m -0.0717,-1.9236 h 10.66706 m -21.18961,1.88209 h 10.66706 m 10.37877,-0.001 h 10.66706 m 31.49436,0.0414 v -1.94221 m 10.38785,1.94592 v -1.94221 m 0.0708,1.89908 H 215.936 m 20.84903,-1.90122 v 1.9422 m 0.0708,-1.89909 h -10.5311 m 20.85069,1.90337 v -1.94221 m 0.0708,1.89908 h -10.5311 m 20.84871,0.0297 v -1.94221 m 10.38786,1.94593 v -1.94221 m 0.0707,1.89908 H 257.4913 m 20.84884,-1.90122 v 1.9422 m 0.0707,-1.89908 h -10.53111 m 22.86859,1.86024 h -12.47826 m -20.63684,-1.85901 h -10.53109 m 43.55166,-12.42234 h -1.94533 m 1.90213,-0.0972 v 14.47196 m -1.90428,-28.65075 h 1.94532 m -1.90213,-0.0972 v 14.47196 m 1.90642,-28.65329 h -1.94533 m 1.90214,-0.0972 v 14.47195 m 0.0298,-28.65053 h -1.94533 m 1.94904,-14.27501 h -1.94533 m 1.90213,-0.0972 v 14.47195 m -1.90427,-28.65072 h 1.94531 m -1.90213,-0.0972 v 14.47195 m 1.90642,-28.65331 h -1.94533 m 1.90213,-0.0972 v 14.47196 m -1.862,28.35938 v 14.47196 m -0.043,-57.20569 h 1.94532 m -1.94904,-14.27513 h 1.94533 m -1.90213,-0.0972 v 14.47195 m 1.90427,-28.65071 h -1.94532 m 1.90213,-0.0972 v 14.47195 m -1.90642,-28.6533 h 1.94533 m -1.90213,-0.0972 v 14.47194 m -0.0298,-28.65052 h 1.94533 m -1.94905,-14.27516 h 1.94533 m -1.90213,-0.0972 v 14.47195 m 1.90428,-28.65071 h -1.94532 m 1.90213,-0.0971 v 14.47205 m -1.90642,-28.6533 h 1.94533 m -1.90213,-0.0971 v 14.47195 m 1.862,28.3594 v 14.47195 m 0.0446,-57.20491 h -1.94533 m 1.94905,-14.27509 h -1.94533 m 1.90213,-0.0971 v 14.47194 m -1.90428,-28.6508 h 1.94532 m -1.90213,-0.0972 v 14.47196 m 1.90644,-28.653309 h -1.94533 m 1.90213,-0.0972 v 14.471779 m 0.0298,-28.650549 h -1.94533 m 1.94905,-14.27513 h -1.94533 m 1.90213,-0.0972 v 14.472 m -1.90427,-28.65073 h 1.94532 m -1.90213,-0.0972 v 14.47197 m 1.86322,-28.75047 v 14.47196 m -1.86201,28.3594 v 14.47195 m -72.36911,-55.21705 v -1.9673 m -10.522,1.97106 v -1.9673 m -0.0717,1.92361 h 10.66708 m -21.11804,-1.92578 v 1.96729 m -0.0715,-1.9236 h 10.66704 m -21.11991,1.92794 v -1.96729 m -0.0717,1.9236 h 10.66714 m -21.1179,0.0301 v -1.9673 m -10.52197,1.97106 v -1.9673 m -0.0716,1.9236 h 10.66706 m -21.18971,-1.88209 h 10.66706 m 10.37878,0.001 h 10.66705 m 31.49437,-0.0414 v 1.94221 m 10.38784,-1.94592 v 1.94221 m 0.0708,-1.89908 h -10.5311 m 20.84902,1.90122 v -1.9422 m 0.0708,1.89909 h -10.5311 m 20.85068,-1.90337 v 1.94221 m 0.0708,-1.89908 h -10.5311 m 20.84871,-0.0297 v 1.94221 m 10.38786,-1.94593 v 1.94221 m 0.0707,-1.89908 h -10.53108 m 20.84883,1.90122 v -1.9422 m 0.0707,1.89908 h -10.53103 m 22.44278,-1.86024 h -12.05244 m -20.63684,1.85902 h -10.5311 m -96.29142,-1.85566 h 1.99423 m 44.29541,194.950089 c 24.76977,0 44.84967,-20.18916 44.84967,-45.09374 0,-24.90459 -20.0799,-45.09373 -44.84967,-45.09373 m -35.32531,0.0529 v -2.00462 m 0.06,1.9601 h -8.93563 m 17.69024,-1.96231 v 2.00461 m 0.06,-1.96011 h -8.93562 m 17.69183,1.96453 v -2.00462 m 0.06,1.9601 h -8.93564 m 8.88035,-1.97741 v 2.00463 m 8.8141,-2.00846 v 2.00463 m 0.06,-1.9601 h -8.93562 m 17.75025,1.91781 h -8.93563 m -37.26415,0.0207 h 1.99971 m -2.00352,-9.6737 h 1.99971 m -1.95532,-0.0658 v 9.80708 m 1.95752,-19.41553 h -1.9997 m 1.9553,-0.0658 v 9.80717 m -1.95972,-19.41728 h 1.9997 m -1.95529,-0.0658 v 9.80711 m 10.83953,109.39747 v 2.00462 m 0.06,-1.9601 h -8.93563 m 17.69024,1.96231 v -2.00461 m 0.06,1.96012 h -8.93562 m 17.69183,-1.96454 v 2.00462 m 0.06,-1.9601 h -8.93564 m 8.88035,1.97741 v -2.00463 m 8.8141,2.00846 v -2.00463 m 0.06,1.96011 h -8.93562 m 17.75025,-1.91782 h -8.93563 m -37.25675,29.0072 h 1.99971 m -2.00352,-9.6737 h 1.99971 m -1.95532,-0.0658 v 9.80708 m 1.95752,-19.41553 h -1.9997 m 1.9553,-0.0658 v 9.80717 m -1.95972,-19.41728 h 1.9997 m -1.95529,-0.0658 v 9.80712 m 35.28985,-128.92393 5.28009,-2.50893 m -16.38728,2.46135 v 2.00821 m -0.0755,-1.96361 h 11.23401 m -22.24047,1.96582 v -2.00818 m -0.0755,1.96359 h 11.23411 m -22.31797,-1.92343 h 11.23402 m 22.13114,-33.974199 5.28009,2.50892 m -16.38728,-2.46135 v -2.00819 m -0.0755,1.9636 h 11.23401 m -22.24047,-1.96581 v 2.00818 m -0.0755,-1.9636 h 11.23411 m -22.31797,1.92344 h 11.23402 m 27.29524,12.18525 h 1.99951 m -1.95512,0.0655 v -9.73942 m 1.95732,19.28154 h -1.9995 m 1.9551,0.0656 v -9.7395 m -1.91511,19.348789 v -9.739429 m -5.238,194.430459 5.28009,-2.50893 m -16.38728,2.46135 v 2.00819 m -0.0755,-1.96361 h 11.23401 m -22.24047,1.96582 v -2.00818 m -0.0755,1.96359 h 11.23411 m -22.31797,-1.92344 h 11.23402 m 22.13114,-33.97418 5.28009,2.50892 m -16.38728,-2.46135 v -2.00819 m -0.0755,1.9636 h 11.23401 M 164.43348,251.521 v 2.00818 m -0.0755,-1.96359 h 11.23411 m -22.31797,1.92342 h 11.23402 m 27.29524,12.18526 h 1.99951 m -1.95512,0.0654 v -9.73943 m 1.95732,19.28155 h -1.9995 m 1.9551,0.0655 v -9.73948 m -1.91511,19.34878 v -9.73942 m -40.59592,54.01593 h 2.01443 m -2.01828,-13.92488 h 2.01444 m -1.96971,-0.0904 v 14.11709 m 1.97193,-27.94774 h -2.01443 m 1.9697,-0.0904 v 14.11695 m -1.97415,-27.95033 h 2.01443 m -1.96969,-0.0904 v 14.11684 m -0.0299,-230.186349 h 2.01443 m -2.01828,-13.92487 h 2.01444 m -1.96971,-0.0904 v 14.11705 m 1.97193,-27.94773 h -2.01443 m 1.9697,-0.0904 v 14.11695 m -1.97415,-27.95034 h 2.01443 m -1.96969,-0.0904 v 14.11684"
       sodipodi:nodetypes="cccccccccccccccccccccccccccccccccccccccccccccccccccccccccccccccccccccccccccccccccccccccccccccccccccccccccccccccccccccccccccccccccccccccccccccccccccccccccccccccccccccccccccccccccccccccccccccccccsccccccccccccccccccccccccccccccccccccccccccccccccccccccccccccccccccccccccccccccccccccccccccccccccccccccccccccccccccccccccccccccccccccccccccccccccccccccccccccccccccccc" />
    <path
       id="path8-8"
       style="fill:none;fill-rule:evenodd;stroke:#ff0000;stroke-width:0.283163;paint-order:fill markers stroke"
       d="m 72.653837,315.86311 v 1.9673 m -10.52199,-1.97106 v 1.9673 m -0.0717,-1.9236 h 10.66705 m -21.11804,1.92577 v -1.96729 m -0.0715,1.92361 h 10.66704 m -21.1199,-1.92795 v 1.96729 m -0.0716,-1.92359 h 10.66703 m -21.11789,-0.0301 v 1.96729 m -10.52197,-1.97105 v 1.96729 m -0.0717,-1.9236 h 10.66706 m -22.8237119,1.88209 12.3011619,0 m 10.37877,-10e-4 h 10.66706 m 31.49435,0.0414 V 315.891 m 10.38785,1.94592 v -1.94221 m 0.0708,1.89908 h -10.5311 m 20.84903,-1.90122 v 1.9422 m 0.0708,-1.89909 h -10.5311 m 20.850683,1.90337 v -1.94221 m 0.0708,1.89908 H 93.360027 m 20.848703,0.0297 v -1.94221 m 10.38786,1.94593 v -1.94221 m 0.0707,1.89908 h -10.53108 m 20.84883,-1.90122 v 1.9422 m 0.0707,-1.89908 h -10.53111 m 22.86445,1.86024 h -12.47412 m -20.63684,-1.85901 h -10.53109 m 43.55166,-12.42233 h -1.94533 m 1.90213,-0.0972 v 14.47195 m -1.90428,-28.65074 h 1.94532 m -1.90213,-0.0972 v 14.47196 m 1.90643,-28.65329 h -1.94533 m 1.90213,-0.0972 v 14.47195 m 0.0298,-28.65053 h -1.94533 m 1.94904,-14.27501 h -1.94533 m 1.90213,-0.0972 v 14.47195 m -1.90427,-28.65072 h 1.94531 m -1.90213,-0.0972 v 14.47195 m 1.90642,-28.65331 h -1.94533 m 1.90213,-0.0972 v 14.47196 m -1.862,28.35938 v 14.47196 m -0.043,-57.20569 h 1.94533 m -1.94905,-14.27513 h 1.94533 m -1.90213,-0.0972 v 14.47195 m 1.90427,-28.65071 h -1.94532 m 1.90214,-0.0972 v 14.47195 m -1.90643,-28.6533 h 1.94533 m -1.90213,-0.0972 v 14.47194 m -0.0298,-28.65052 h 1.94533 M 145.34889,146.467 h 1.94533 m -1.90213,-0.0972 v 14.47195 m 1.90429,-28.65071 h -1.94533 m 1.90214,-0.0971 v 14.47205 m -1.90643,-28.65331 h 1.94533 m -1.90213,-0.0971 v 14.47196 m 1.86201,28.3594 v 14.47195 m 0.0446,-57.20492 h -1.94533 m 1.94904,-14.27509 h -1.94533 m 1.90213,-0.0971 v 14.47195 m -1.90427,-28.65081 h 1.94532 m -1.90214,-0.09716 v 14.47196 m 1.90645,-28.653302 h -1.94533 m 1.90213,-0.09717 v 14.471776 m 0.0298,-28.650542 h -1.94533 m 1.94905,-14.275131 h -1.94534 m 1.90214,-0.09716 v 14.471952 m -1.90428,-28.65073 h 1.94532 m -1.90213,-0.09716 v 14.47197 m 1.86322,-28.750463 v 14.471953 m -1.86201,28.359408 v 14.47195 M 73.020577,19.968022 V 18.00072 m -10.52199,1.971061 v -1.967302 m -0.0717,1.923606 h 10.66707 M 51.975927,18.00231 v 1.967292 m -0.0715,-1.923606 h 10.66704 m -21.11991,1.927944 v -1.967291 m -0.0717,1.923596 h 10.66714 m -21.1179,0.03009 v -1.967292 m -10.52197,1.971051 v -1.967292 m -0.0716,1.923596 h 10.66706 M 7.807521,18.038308 h 12.672416 m 10.37878,0.0012 h 10.66705 m 31.49436,-0.04139 v 1.94221 m 10.38784,-1.945918 v 1.942209 m 0.0708,-1.899083 h -10.5311 m 20.84902,1.901223 v -1.9422 m 0.0708,1.899094 h -10.5311 m 20.850673,-1.90337 v 1.94221 m 0.0708,-1.899084 H 93.726767 m 20.848703,-0.02969 v 1.94221 M 124.96334,18.002 v 1.94221 m 0.0707,-1.899084 h -10.53109 m 20.84883,1.901223 v -1.9422 m 0.0707,1.899084 H 124.8914 m 22.45931,-1.860246 h -12.06898 m -20.63684,1.859017 h -10.5311 M 54.112087,212.99644 c 24.76976,0 44.84966,-20.18916 44.84966,-45.09374 0,-24.90459 -20.0799,-45.09373 -44.84966,-45.09373 m -35.32531,0.0529 v -2.00462 m 0.06,1.9601 H 9.9111477 m 17.6902393,-1.96231 v 2.00461 m 0.06,-1.96011 h -8.93562 m 17.69183,1.96453 v -2.00462 m 0.06,1.9601 h -8.93564 m 8.88035,-1.97741 v 2.00463 m 8.8141,-2.00846 v 2.00463 m 0.06,-1.9601 h -8.93562 m 17.75025,1.91781 h -8.93563 m -37.2641493,0.0207 h 1.99971 m -2.00352,-9.67372 h 1.99971 m -1.95532,-0.0658 v 9.8071 m 1.95752,-19.41554 h -1.9997 m 1.9553,-0.0658 v 9.80716 m -1.95972,-19.417269 h 1.9997 m -1.95529,-0.0658 v 9.807109 M 18.789177,212.93627 v 2.00462 m 0.06,-1.9601 H 9.9135477 m 17.6902393,1.96231 v -2.00461 m 0.06,1.96012 h -8.93562 m 17.69183,-1.96454 v 2.00462 m 0.06,-1.9601 h -8.93564 m 8.88035,1.97741 v -2.00463 m 8.8141,2.00846 v -2.00463 m 0.06,1.96011 h -8.93562 m 17.75025,-1.91782 h -8.93563 m -37.2567493,29.0072 h 1.99971 m -2.00352,-9.6737 h 1.99971 m -1.95532,-0.0658 v 9.80708 m 1.95752,-19.41553 h -1.9997 m 1.9553,-0.0658 v 9.80717 m -1.95972,-19.41728 h 1.9997 m -1.95529,-0.0658 v 9.80712 M 43.249297,93.798211 l 5.28009,-2.508925 m -16.38728,2.461345 v 2.00821 m -0.0755,-1.96361 h 11.23401 m -22.24047,1.96582 v -2.00818 m -0.0755,1.96359 h 11.23411 M 9.9007877,93.793031 H 21.134807 m 22.13114,-33.974196 5.28009,2.50892 m -16.38728,-2.461346 v -2.008192 m -0.0755,1.963605 h 11.23401 m -22.24047,-1.965818 v 2.008181 m -0.0755,-1.963594 h 11.23411 M 9.9174377,59.824026 H 21.151457 m 27.29524,12.185247 h 1.99951 m -1.95512,0.06546 v -9.739416 m 1.95732,19.281538 h -1.9995 m 1.9551,0.06556 v -9.739494 m -1.91511,19.348784 v -9.73943 m -5.238,194.430465 5.28009,-2.50893 m -16.38728,2.46135 v 2.00819 m -0.0755,-1.96361 h 11.23401 m -22.24047,1.96582 v -2.00818 m -0.0755,1.96359 h 11.23411 M 9.9023877,275.97753 H 21.136407 m 22.13114,-33.97418 5.28009,2.50892 m -16.38728,-2.46135 v -2.00819 m -0.0755,1.9636 h 11.23401 m -22.24047,-1.96581 v 2.00818 m -0.0755,-1.96359 h 11.23411 M 9.9190377,242.00853 H 21.153057 m 27.29524,12.18526 h 1.99951 m -1.95512,0.0654 v -9.73943 m 1.95732,19.28155 h -1.9995 m 1.9551,0.0655 v -9.73948 m -1.91511,19.34878 v -9.73942 M 7.8907277,303.82774 h 2.01444 m -1.96971,-0.0904 v 14.11684 m 1.97193,-27.94773 h -2.01443 m 1.9697,-0.0904 V 303.933 m -1.97415,-27.95033 h 2.01443 m -1.96969,-0.0904 v 14.11684 m -0.0299,-230.186356 h 2.01443 M 7.8994977,45.89789 h 2.01444 m -1.96971,-0.09039 v 14.11705 m 1.97193,-27.947729 h -2.01443 m 1.9697,-0.09039 V 46.003373 M 7.9420177,17.96265 v 14.116841"
       sodipodi:nodetypes="cccccccccccccccccccccccccccccccccccccccccccccccccccccccccccccccccccccccccccccccccccccccccccccccccccccccccccccccccccccccccccccccccccccccccccccccccccccccccccccccccccccccccccccccccccccccccccccccsccccccccccccccccccccccccccccccccccccccccccccccccccccccccccccccccccccccccccccccccccccccccccccccccccccccccccccccccccccccccccccccccccccccccccccccccccccccccccccccccc" />
    <path
       style="fill:none;fill-rule:evenodd;stroke:#ff0000;stroke-width:0.0993107;paint-order:fill markers stroke"
       d="m 3.6589181,379.26674 v -7.89251"
       id="path50"
       sodipodi:nodetypes="cc" />
    <path
       style="fill:none;fill-rule:evenodd;stroke:#ff0000;stroke-width:0.0993107;paint-order:fill markers stroke"
       d="m 50.899148,379.34273 v -8"
       id="path49" />
    <path
       style="fill:none;fill-rule:evenodd;stroke:#ff0000;stroke-width:0.0993107;paint-order:fill markers stroke"
       d="m 50.947628,379.28643 h -8.93567"
       id="path48" />
    <path
       style="fill:none;fill-rule:evenodd;stroke:#ff0000;stroke-width:0.0993107;paint-order:fill markers stroke"
       d="m 42.132958,381.19389 h -8.93567"
       id="path47" />
    <path
       style="fill:none;fill-rule:evenodd;stroke:#ff0000;stroke-width:0.0993107;paint-order:fill markers stroke"
       d="m 42.072958,381.23817 v -1.9938"
       id="path46" />
    <path
       style="fill:none;fill-rule:evenodd;stroke:#ff0000;stroke-width:0.0993107;paint-order:fill markers stroke"
       d="m 33.258808,381.23436 v -1.9938"
       id="path45" />
    <path
       style="fill:none;fill-rule:evenodd;stroke:#ff0000;stroke-width:0.0993107;paint-order:fill markers stroke"
       d="m 33.314098,379.26763 h -8.93568"
       id="path44" />
    <path
       style="fill:none;fill-rule:evenodd;stroke:#ff0000;stroke-width:0.0993107;paint-order:fill markers stroke"
       d="m 33.254098,379.22335 v 1.9938"
       id="path43" />
    <path
       style="fill:none;fill-rule:evenodd;stroke:#ff0000;stroke-width:0.0993107;paint-order:fill markers stroke"
       d="m 24.497848,381.17728 h -8.93567"
       id="path42" />
    <path
       style="fill:none;fill-rule:evenodd;stroke:#ff0000;stroke-width:0.0993107;paint-order:fill markers stroke"
       d="m 24.437848,381.22154 v -1.99379"
       id="path41" />
    <path
       style="fill:none;fill-rule:evenodd;stroke:#ff0000;stroke-width:0.0993107;paint-order:fill markers stroke"
       d="M 15.683188,379.26982 H 3.6634681"
       id="path40"
       sodipodi:nodetypes="cc" />
    <path
       style="fill:none;fill-rule:evenodd;stroke:#ff0000;stroke-width:0.0993107;paint-order:fill markers stroke"
       d="m 15.623188,379.22554 v 1.9938"
       id="path39" />
    <path
       style="fill:none;fill-rule:evenodd;stroke:#ff0000;stroke-width:0.0993107;paint-order:fill markers stroke"
       d="m 50.946178,371.39109 h -8.93567"
       id="path38" />
    <path
       style="fill:none;fill-rule:evenodd;stroke:#ff0000;stroke-width:0.0993107;paint-order:fill markers stroke"
       d="m 42.131508,369.48363 h -8.93567"
       id="path37" />
    <path
       style="fill:none;fill-rule:evenodd;stroke:#ff0000;stroke-width:0.0993107;paint-order:fill markers stroke"
       d="m 42.071508,369.43935 v 1.9938"
       id="path36" />
    <path
       style="fill:none;fill-rule:evenodd;stroke:#ff0000;stroke-width:0.0993107;paint-order:fill markers stroke"
       d="m 33.257358,369.44316 v 1.9938"
       id="path35" />
    <path
       style="fill:none;fill-rule:evenodd;stroke:#ff0000;stroke-width:0.0993107;paint-order:fill markers stroke"
       d="m 33.312648,371.40989 h -8.93568"
       id="path34" />
    <path
       style="fill:none;fill-rule:evenodd;stroke:#ff0000;stroke-width:0.0993107;paint-order:fill markers stroke"
       d="m 33.252648,371.45417 v -1.9938"
       id="path33" />
    <path
       style="fill:none;fill-rule:evenodd;stroke:#ff0000;stroke-width:0.0993107;paint-order:fill markers stroke"
       d="m 24.496398,369.50024 h -8.93567"
       id="path32" />
    <path
       style="fill:none;fill-rule:evenodd;stroke:#ff0000;stroke-width:0.0993107;paint-order:fill markers stroke"
       d="m 24.436398,369.45598 v 1.99379"
       id="path31" />
    <path
       style="fill:none;fill-rule:evenodd;stroke:#ff0000;stroke-width:0.0993107;paint-order:fill markers stroke"
       d="M 15.681738,371.4077 H 3.6123281"
       id="path30"
       sodipodi:nodetypes="cc" />
    <path
       style="fill:none;fill-rule:evenodd;stroke:#ff0000;stroke-width:0.0993107;paint-order:fill markers stroke"
       d="m 15.621738,371.45198 v -1.9938"
       id="path2-8-0-8-2-4-2-7" />
    <path
       style="fill:none;fill-opacity:1;fill-rule:evenodd;stroke:#ff0000;stroke-width:0.221695;stroke-opacity:1;paint-order:fill markers stroke"
       d="m 56.589743,385.161 v 11.99999"
       id="path32-7-7-5" />
    <path
       style="fill:none;fill-opacity:1;fill-rule:evenodd;stroke:#ff0000;stroke-width:0.221695;stroke-opacity:1;paint-order:fill markers stroke"
       d="m 62.340803,385.161 v 11.99999"
       id="path32-5-0-9-0" />
    <path
       style="fill:none;fill-opacity:1;fill-rule:evenodd;stroke:#ff0000;stroke-width:0.278716;stroke-opacity:1;paint-order:fill markers stroke"
       d="m 62.445683,385.30157 h -6"
       id="path33-56-8-9" />
    <path
       style="fill:none;fill-opacity:1;fill-rule:evenodd;stroke:#ff0000;stroke-width:0.278716;stroke-opacity:1;paint-order:fill markers stroke"
       d="m 62.449303,397.01016 h -6"
       id="path33-5-7-3-0" />
    <path
       style="fill:none;fill-opacity:1;fill-rule:evenodd;stroke:#ff0000;stroke-width:0.221695;stroke-opacity:1;paint-order:fill markers stroke"
       d="m 63.840613,385.20954 v 11.99998"
       id="path32-7-7-5-6" />
    <path
       style="fill:none;fill-opacity:1;fill-rule:evenodd;stroke:#ff0000;stroke-width:0.221695;stroke-opacity:1;paint-order:fill markers stroke"
       d="m 69.591673,385.20954 v 11.99998"
       id="path32-5-0-9-0-6" />
    <path
       style="fill:none;fill-opacity:1;fill-rule:evenodd;stroke:#ff0000;stroke-width:0.278716;stroke-opacity:1;paint-order:fill markers stroke"
       d="m 69.696553,385.35011 h -6"
       id="path33-56-8-9-1" />
    <path
       style="fill:none;fill-opacity:1;fill-rule:evenodd;stroke:#ff0000;stroke-width:0.278716;stroke-opacity:1;paint-order:fill markers stroke"
       d="m 69.700173,397.05869 h -6"
       id="path33-5-7-3-0-8" />
    <path
       style="fill:none;fill-opacity:1;fill-rule:evenodd;stroke:#ff0000;stroke-width:0.221695;stroke-opacity:1;paint-order:fill markers stroke"
       d="m 71.248943,385.27568 v 11.99999"
       id="path32-7-7-5-3" />
    <path
       style="fill:none;fill-opacity:1;fill-rule:evenodd;stroke:#ff0000;stroke-width:0.221695;stroke-opacity:1;paint-order:fill markers stroke"
       d="m 77.000003,385.27568 v 11.99999"
       id="path32-5-0-9-0-7" />
    <path
       style="fill:none;fill-opacity:1;fill-rule:evenodd;stroke:#ff0000;stroke-width:0.278716;stroke-opacity:1;paint-order:fill markers stroke"
       d="m 77.104883,385.41625 h -6"
       id="path33-56-8-9-8" />
    <path
       style="fill:none;fill-opacity:1;fill-rule:evenodd;stroke:#ff0000;stroke-width:0.278716;stroke-opacity:1;paint-order:fill markers stroke"
       d="m 77.108503,397.12484 h -6"
       id="path33-5-7-3-0-82" />
    <path
       style="fill:none;fill-opacity:1;fill-rule:evenodd;stroke:#ff0000;stroke-width:0.221695;stroke-opacity:1;paint-order:fill markers stroke"
       d="m 79.186443,385.34183 v 11.99998"
       id="path32-7-7-5-5" />
    <path
       style="fill:none;fill-opacity:1;fill-rule:evenodd;stroke:#ff0000;stroke-width:0.221695;stroke-opacity:1;paint-order:fill markers stroke"
       d="m 84.937503,385.34183 v 11.99998"
       id="path32-5-0-9-0-9" />
    <path
       style="fill:none;fill-opacity:1;fill-rule:evenodd;stroke:#ff0000;stroke-width:0.278716;stroke-opacity:1;paint-order:fill markers stroke"
       d="m 85.042383,385.4824 h -6"
       id="path33-56-8-9-84" />
    <path
       style="fill:none;fill-opacity:1;fill-rule:evenodd;stroke:#ff0000;stroke-width:0.278716;stroke-opacity:1;paint-order:fill markers stroke"
       d="m 85.046003,397.19098 h -6"
       id="path33-5-7-3-0-0" />
    <path
       style="fill:none;fill-opacity:1;fill-rule:evenodd;stroke:#ff0000;stroke-width:0.190678;stroke-opacity:1;paint-order:fill markers stroke"
       d="M 9.7481267,3.3987283 V 13.71979"
       id="path32-7-7-5-55" />
    <path
       style="fill:none;fill-opacity:1;fill-rule:evenodd;stroke:#ff0000;stroke-width:0.190678;stroke-opacity:1;paint-order:fill markers stroke"
       d="M 14.694547,3.3987283 V 13.71979"
       id="path32-5-0-9-0-1" />
    <path
       style="fill:none;fill-opacity:1;fill-rule:evenodd;stroke:#ff0000;stroke-width:0.23972;stroke-opacity:1;paint-order:fill markers stroke"
       d="M 14.784747,3.5196309 H 9.6242167"
       id="path33-56-8-9-7" />
    <path
       style="fill:none;fill-opacity:1;fill-rule:evenodd;stroke:#ff0000;stroke-width:0.23972;stroke-opacity:1;paint-order:fill markers stroke"
       d="M 14.787867,13.590062 H 9.6273367"
       id="path33-5-7-3-0-1" />
    <path
       style="fill:none;fill-opacity:1;fill-rule:evenodd;stroke:#ff0000;stroke-width:0.190678;stroke-opacity:1;paint-order:fill markers stroke"
       d="M 15.984517,3.440477 V 13.76153"
       id="path32-7-7-5-6-1" />
    <path
       style="fill:none;fill-opacity:1;fill-rule:evenodd;stroke:#ff0000;stroke-width:0.190678;stroke-opacity:1;paint-order:fill markers stroke"
       d="M 20.930947,3.440477 V 13.76153"
       id="path32-5-0-9-0-6-5" />
    <path
       style="fill:none;fill-opacity:1;fill-rule:evenodd;stroke:#ff0000;stroke-width:0.23972;stroke-opacity:1;paint-order:fill markers stroke"
       d="m 21.021157,3.5613797 h -5.16054"
       id="path33-56-8-9-1-2" />
    <path
       style="fill:none;fill-opacity:1;fill-rule:evenodd;stroke:#ff0000;stroke-width:0.23972;stroke-opacity:1;paint-order:fill markers stroke"
       d="m 21.024267,13.631803 h -5.16054"
       id="path33-5-7-3-0-8-7" />
    <path
       style="fill:none;fill-opacity:1;fill-rule:evenodd;stroke:#ff0000;stroke-width:0.190678;stroke-opacity:1;paint-order:fill markers stroke"
       d="M 22.356347,3.4973633 V 13.818425"
       id="path32-7-7-5-3-6" />
    <path
       style="fill:none;fill-opacity:1;fill-rule:evenodd;stroke:#ff0000;stroke-width:0.190678;stroke-opacity:1;paint-order:fill markers stroke"
       d="M 27.302767,3.4973633 V 13.818425"
       id="path32-5-0-9-0-7-1" />
    <path
       style="fill:none;fill-opacity:1;fill-rule:evenodd;stroke:#ff0000;stroke-width:0.23972;stroke-opacity:1;paint-order:fill markers stroke"
       d="m 27.392977,3.618266 h -5.16054"
       id="path33-56-8-9-8-4" />
    <path
       style="fill:none;fill-opacity:1;fill-rule:evenodd;stroke:#ff0000;stroke-width:0.23972;stroke-opacity:1;paint-order:fill markers stroke"
       d="m 27.396087,13.688698 h -5.16054"
       id="path33-5-7-3-0-82-2" />
    <path
       style="fill:none;fill-opacity:1;fill-rule:evenodd;stroke:#ff0000;stroke-width:0.190678;stroke-opacity:1;paint-order:fill markers stroke"
       d="M 29.183297,3.5542582 V 13.875312"
       id="path32-7-7-5-5-3" />
    <path
       style="fill:none;fill-opacity:1;fill-rule:evenodd;stroke:#ff0000;stroke-width:0.190678;stroke-opacity:1;paint-order:fill markers stroke"
       d="M 34.129727,3.5542582 V 13.875312"
       id="path32-5-0-9-0-9-2" />
    <path
       style="fill:none;fill-opacity:1;fill-rule:evenodd;stroke:#ff0000;stroke-width:0.23972;stroke-opacity:1;paint-order:fill markers stroke"
       d="m 34.219937,3.6751609 h -5.16054"
       id="path33-56-8-9-84-2" />
    <path
       style="fill:none;fill-opacity:1;fill-rule:evenodd;stroke:#ff0000;stroke-width:0.23972;stroke-opacity:1;paint-order:fill markers stroke"
       d="m 34.223047,13.745584 h -5.16054"
       id="path33-5-7-3-0-0-1" />
    <path
       style="fill:none;fill-opacity:0.470588;fill-rule:evenodd;stroke:#ff0000;stroke-width:0.229463;stroke-opacity:1;paint-order:fill markers stroke"
       d="M 98.18027,394.40278 V 382.40636"
       id="path42-88-6-4-3-0" />
    <path
       style="fill:none;fill-opacity:0.470588;fill-rule:evenodd;stroke:#ff0000;stroke-width:0.229463;stroke-opacity:1;paint-order:fill markers stroke"
       d="M 258.22855,394.41777 V 382.42134"
       id="path42-88-6-4-8-8" />
    <path
       style="fill:none;fill-opacity:0.470588;fill-rule:evenodd;stroke:#ff0000;stroke-width:0.282767;stroke-opacity:1;paint-order:fill markers stroke"
       d="M 98.15216,394.28742 H 258.35215"
       id="path44-3" />
    <path
       style="fill:none;fill-opacity:0.470588;fill-rule:evenodd;stroke:#ff0000;stroke-width:0.282766;stroke-opacity:1;paint-order:fill markers stroke"
       d="M 98.07191,382.54499 H 258.2719"
       id="path44-8-9" />
    <path
       style="fill:none;fill-opacity:0.470588;fill-rule:evenodd;stroke:#00ff00;stroke-width:0.225766;stroke-opacity:1;paint-order:fill markers stroke"
       d="M 164.76649,394.22322 V 382.6103"
       id="path42-88-6-4-8-9-0-2-3-3" />
    <path
       style="fill:none;fill-opacity:0.470588;fill-rule:evenodd;stroke:#00ff00;stroke-width:0.225657;stroke-opacity:1;paint-order:fill markers stroke"
       d="M 162.1182,394.22358 V 382.62182"
       id="path42-88-6-4-8-9-5-4-2-9" />
    <path
       style="fill:none;fill-opacity:0.470588;fill-rule:evenodd;stroke:#00ff00;stroke-width:0.225694;stroke-opacity:1;paint-order:fill markers stroke"
       d="M 159.47231,394.22412 V 382.61864"
       id="path42-88-6-4-8-9-5-2-6-5-6" />
    <path
       style="fill:none;fill-opacity:0.470588;fill-rule:evenodd;stroke:#00ff00;stroke-width:0.225649;stroke-opacity:1;paint-order:fill markers stroke"
       d="M 167.41137,394.22143 V 382.62056"
       id="path42-88-6-4-8-9-8-1-2-7" />
    <path
       style="fill:none;fill-opacity:0.470588;fill-rule:evenodd;stroke:#00ff00;stroke-width:0.225688;stroke-opacity:1;paint-order:fill markers stroke"
       d="M 172.70404,394.22579 V 382.62094"
       id="path42-88-6-4-8-9-5-6-2-9" />
    <path
       style="fill:none;fill-opacity:0.470588;fill-rule:evenodd;stroke:#00ff00;stroke-width:0.225699;stroke-opacity:1;paint-order:fill markers stroke"
       d="M 170.06022,394.22222 V 382.61621"
       id="path42-88-6-4-8-9-5-2-2-9-9" />
    <path
       style="fill:none;fill-opacity:0.470588;fill-rule:evenodd;stroke:#00ff00;stroke-width:0.225744;stroke-opacity:1;paint-order:fill markers stroke"
       d="M 130.47702,394.22613 V 382.61547"
       id="path42-88-6-4-8-9-0-2-1-1-7" />
    <path
       style="fill:none;fill-opacity:0.470588;fill-rule:evenodd;stroke:#00ff00;stroke-width:0.225725;stroke-opacity:1;paint-order:fill markers stroke"
       d="M 127.72267,394.2213 V 382.61263"
       id="path42-88-6-4-8-9-5-4-9-9-6" />
    <path
       style="fill:none;fill-opacity:0.470588;fill-rule:evenodd;stroke:#00ff00;stroke-width:0.225511;stroke-opacity:1;paint-order:fill markers stroke"
       d="M 125.07533,394.22136 V 382.63461"
       id="path42-88-6-4-8-9-5-2-6-7-6-9" />
    <path
       style="fill:none;fill-opacity:0.470588;fill-rule:evenodd;stroke:#00ff00;stroke-width:0.225658;stroke-opacity:1;paint-order:fill markers stroke"
       d="m 133.01566,394.22015 v -11.6019"
       id="path42-88-6-4-8-9-8-1-6-9-3" />
    <path
       style="fill:none;fill-opacity:0.470588;fill-rule:evenodd;stroke:#00ff00;stroke-width:0.225659;stroke-opacity:1;paint-order:fill markers stroke"
       d="m 154.18427,394.22458 v -11.6019"
       id="path42-88-6-4-8-9-0-29-8-5" />
    <path
       style="fill:none;fill-opacity:0.470588;fill-rule:evenodd;stroke:#00ff00;stroke-width:0.225725;stroke-opacity:1;paint-order:fill markers stroke"
       d="M 148.88355,394.22104 V 382.61237"
       id="path42-88-6-4-8-9-5-5-2-7" />
    <path
       style="fill:none;fill-opacity:0.470588;fill-rule:evenodd;stroke:#00ff00;stroke-width:0.225725;stroke-opacity:1;paint-order:fill markers stroke"
       d="M 151.53604,394.22148 V 382.6128"
       id="path42-88-6-4-8-9-5-5-2-8-6" />
    <path
       style="fill:none;fill-opacity:0.470588;fill-rule:evenodd;stroke:#00ff00;stroke-width:0.22581;stroke-opacity:1;paint-order:fill markers stroke"
       d="M 146.24387,394.22366 V 382.60622"
       id="path42-88-6-4-8-9-5-2-20-5-6" />
    <path
       style="fill:none;fill-opacity:0.470588;fill-rule:evenodd;stroke:#00ff00;stroke-width:0.225617;stroke-opacity:1;paint-order:fill markers stroke"
       d="M 156.82501,394.22588 V 382.62837"
       id="path42-88-6-4-8-9-8-0-5-5" />
    <path
       style="fill:none;fill-opacity:0.470588;fill-rule:evenodd;stroke:#00ff00;stroke-width:0.225744;stroke-opacity:1;paint-order:fill markers stroke"
       d="M 140.94915,394.22733 V 382.61667"
       id="path42-88-6-4-8-9-0-8-3-4-8" />
    <path
       style="fill:none;fill-opacity:0.470588;fill-rule:evenodd;stroke:#00ff00;stroke-width:0.22564;stroke-opacity:1;paint-order:fill markers stroke"
       d="m 138.30705,394.22277 v -11.5999"
       id="path42-88-6-4-8-9-5-6-9-9-2" />
    <path
       style="fill:none;fill-opacity:0.470588;fill-rule:evenodd;stroke:#00ff00;stroke-width:0.22581;stroke-opacity:1;paint-order:fill markers stroke"
       d="M 135.65871,394.21764 V 382.60021"
       id="path42-88-6-4-8-9-5-2-2-1-1-5" />
    <path
       style="fill:none;fill-opacity:0.470588;fill-rule:evenodd;stroke:#00ff00;stroke-width:0.225658;stroke-opacity:1;paint-order:fill markers stroke"
       d="m 143.59401,394.21934 v -11.6019"
       id="path42-88-6-4-8-9-8-6-8-2-4" />
    <path
       style="fill:none;fill-opacity:0.470588;fill-rule:evenodd;stroke:#00ff00;stroke-width:0.225682;stroke-opacity:1;paint-order:fill markers stroke"
       d="M 122.43086,394.22125 V 382.61697"
       id="path42-88-6-4-8-9-5-2-6-7-6-3-4" />
    <path
       style="fill:none;fill-opacity:0.470588;fill-rule:evenodd;stroke:#00ff00;stroke-width:0.225639;stroke-opacity:1;paint-order:fill markers stroke"
       d="M 119.76789,394.21481 V 382.6149"
       id="path42-88-6-4-8-9-5-2-6-7-6-6-16" />
    <path
       style="fill:none;fill-opacity:0.470588;fill-rule:evenodd;stroke:#00ff00;stroke-width:0.225744;stroke-opacity:1;paint-order:fill markers stroke"
       d="M 111.69682,394.21554 V 382.60488"
       id="path42-88-6-4-8-9-0-2-1-1-7-7" />
    <path
       style="fill:none;fill-opacity:0.470588;fill-rule:evenodd;stroke:#00ff00;stroke-width:0.225725;stroke-opacity:1;paint-order:fill markers stroke"
       d="M 108.94247,394.21071 V 382.60204"
       id="path42-88-6-4-8-9-5-4-9-9-6-9" />
    <path
       style="fill:none;fill-opacity:0.470588;fill-rule:evenodd;stroke:#00ff00;stroke-width:0.225511;stroke-opacity:1;paint-order:fill markers stroke"
       d="M 106.29513,394.21077 V 382.62402"
       id="path42-88-6-4-8-9-5-2-6-7-6-9-3" />
    <path
       style="fill:none;fill-opacity:0.470588;fill-rule:evenodd;stroke:#00ff00;stroke-width:0.225658;stroke-opacity:1;paint-order:fill markers stroke"
       d="m 114.23546,394.20956 v -11.6019"
       id="path42-88-6-4-8-9-8-1-6-9-3-1" />
    <path
       style="fill:none;fill-opacity:0.470588;fill-rule:evenodd;stroke:#00ff00;stroke-width:0.22581;stroke-opacity:1;paint-order:fill markers stroke"
       d="M 116.87851,394.20705 V 382.58962"
       id="path42-88-6-4-8-9-5-2-2-1-1-5-9" />
    <path
       style="fill:none;fill-opacity:0.470588;fill-rule:evenodd;stroke:#00ff00;stroke-width:0.225682;stroke-opacity:1;paint-order:fill markers stroke"
       d="M 103.65066,394.21066 V 382.60638"
       id="path42-88-6-4-8-9-5-2-6-7-6-3-4-8" />
    <path
       style="fill:none;fill-opacity:0.470588;fill-rule:evenodd;stroke:#00ff00;stroke-width:0.225639;stroke-opacity:1;paint-order:fill markers stroke"
       d="M 100.98769,394.20422 V 382.60431"
       id="path42-88-6-4-8-9-5-2-6-7-6-6-16-6" />
    <path
       style="fill:none;fill-opacity:0.470588;fill-rule:evenodd;stroke:#00ff00;stroke-width:0.225766;stroke-opacity:1;paint-order:fill markers stroke"
       d="M 220.3507,394.22829 V 382.61537"
       id="path42-88-6-4-8-9-0-2-3-2-3" />
    <path
       style="fill:none;fill-opacity:0.470588;fill-rule:evenodd;stroke:#00ff00;stroke-width:0.225657;stroke-opacity:1;paint-order:fill markers stroke"
       d="M 217.7024,394.22864 V 382.62688"
       id="path42-88-6-4-8-9-5-4-2-0-5" />
    <path
       style="fill:none;fill-opacity:0.470588;fill-rule:evenodd;stroke:#00ff00;stroke-width:0.225694;stroke-opacity:1;paint-order:fill markers stroke"
       d="M 215.05652,394.22919 V 382.62371"
       id="path42-88-6-4-8-9-5-2-6-5-1-5" />
    <path
       style="fill:none;fill-opacity:0.470588;fill-rule:evenodd;stroke:#00ff00;stroke-width:0.225649;stroke-opacity:1;paint-order:fill markers stroke"
       d="M 222.99557,394.2265 V 382.62563"
       id="path42-88-6-4-8-9-8-1-2-6-3" />
    <path
       style="fill:none;fill-opacity:0.470588;fill-rule:evenodd;stroke:#00ff00;stroke-width:0.225688;stroke-opacity:1;paint-order:fill markers stroke"
       d="M 228.28824,394.23086 V 382.62601"
       id="path42-88-6-4-8-9-5-6-2-4-2" />
    <path
       style="fill:none;fill-opacity:0.470588;fill-rule:evenodd;stroke:#00ff00;stroke-width:0.225699;stroke-opacity:1;paint-order:fill markers stroke"
       d="M 225.64442,394.22729 V 382.62128"
       id="path42-88-6-4-8-9-5-2-2-9-0-8" />
    <path
       style="fill:none;fill-opacity:0.470588;fill-rule:evenodd;stroke:#00ff00;stroke-width:0.225744;stroke-opacity:1;paint-order:fill markers stroke"
       d="M 186.06122,394.2312 V 382.62053"
       id="path42-88-6-4-8-9-0-2-1-1-6-2" />
    <path
       style="fill:none;fill-opacity:0.470588;fill-rule:evenodd;stroke:#00ff00;stroke-width:0.225725;stroke-opacity:1;paint-order:fill markers stroke"
       d="M 183.30687,394.22637 V 382.6177"
       id="path42-88-6-4-8-9-5-4-9-9-1-5" />
    <path
       style="fill:none;fill-opacity:0.470588;fill-rule:evenodd;stroke:#00ff00;stroke-width:0.225511;stroke-opacity:1;paint-order:fill markers stroke"
       d="M 180.65953,394.22643 V 382.63968"
       id="path42-88-6-4-8-9-5-2-6-7-6-8-3" />
    <path
       style="fill:none;fill-opacity:0.470588;fill-rule:evenodd;stroke:#00ff00;stroke-width:0.225658;stroke-opacity:1;paint-order:fill markers stroke"
       d="m 188.59986,394.22522 v -11.6019"
       id="path42-88-6-4-8-9-8-1-6-9-9-6" />
    <path
       style="fill:none;fill-opacity:0.470588;fill-rule:evenodd;stroke:#00ff00;stroke-width:0.225659;stroke-opacity:1;paint-order:fill markers stroke"
       d="m 209.76848,394.22965 v -11.6019"
       id="path42-88-6-4-8-9-0-29-8-8-1" />
    <path
       style="fill:none;fill-opacity:0.470588;fill-rule:evenodd;stroke:#00ff00;stroke-width:0.225725;stroke-opacity:1;paint-order:fill markers stroke"
       d="M 204.46776,394.22611 V 382.61744"
       id="path42-88-6-4-8-9-5-5-2-4-8" />
    <path
       style="fill:none;fill-opacity:0.470588;fill-rule:evenodd;stroke:#00ff00;stroke-width:0.225725;stroke-opacity:1;paint-order:fill markers stroke"
       d="M 207.12024,394.22654 V 382.61787"
       id="path42-88-6-4-8-9-5-5-2-8-1-6" />
    <path
       style="fill:none;fill-opacity:0.470588;fill-rule:evenodd;stroke:#00ff00;stroke-width:0.22581;stroke-opacity:1;paint-order:fill markers stroke"
       d="M 201.82807,394.22873 V 382.61129"
       id="path42-88-6-4-8-9-5-2-20-5-4-2" />
    <path
       style="fill:none;fill-opacity:0.470588;fill-rule:evenodd;stroke:#00ff00;stroke-width:0.225617;stroke-opacity:1;paint-order:fill markers stroke"
       d="M 212.40921,394.23095 V 382.63344"
       id="path42-88-6-4-8-9-8-0-5-3-1" />
    <path
       style="fill:none;fill-opacity:0.470588;fill-rule:evenodd;stroke:#00ff00;stroke-width:0.225766;stroke-opacity:1;paint-order:fill markers stroke"
       d="M 241.5045,394.21967 V 382.60675"
       id="path42-88-6-4-8-9-0-2-3-2-8-4" />
    <path
       style="fill:none;fill-opacity:0.470588;fill-rule:evenodd;stroke:#00ff00;stroke-width:0.225657;stroke-opacity:1;paint-order:fill markers stroke"
       d="M 238.85621,394.22002 V 382.61826"
       id="path42-88-6-4-8-9-5-4-2-0-3-6" />
    <path
       style="fill:none;fill-opacity:0.470588;fill-rule:evenodd;stroke:#00ff00;stroke-width:0.225694;stroke-opacity:1;paint-order:fill markers stroke"
       d="M 236.21032,394.22057 V 382.61508"
       id="path42-88-6-4-8-9-5-2-6-5-1-7-2" />
    <path
       style="fill:none;fill-opacity:0.470588;fill-rule:evenodd;stroke:#00ff00;stroke-width:0.225649;stroke-opacity:1;paint-order:fill markers stroke"
       d="M 244.14938,394.21788 V 382.617"
       id="path42-88-6-4-8-9-8-1-2-6-1-9" />
    <path
       style="fill:none;fill-opacity:0.470588;fill-rule:evenodd;stroke:#00ff00;stroke-width:0.225688;stroke-opacity:1;paint-order:fill markers stroke"
       d="M 249.44205,394.22224 V 382.61739"
       id="path42-88-6-4-8-9-5-6-2-4-0-15" />
    <path
       style="fill:none;fill-opacity:0.470588;fill-rule:evenodd;stroke:#00ff00;stroke-width:0.225699;stroke-opacity:1;paint-order:fill markers stroke"
       d="M 246.79823,394.21866 V 382.61265"
       id="path42-88-6-4-8-9-5-2-2-9-0-7-03" />
    <path
       style="fill:none;fill-opacity:0.470588;fill-rule:evenodd;stroke:#00ff00;stroke-width:0.225688;stroke-opacity:1;paint-order:fill markers stroke"
       d="M 254.74087,394.22448 V 382.61962"
       id="path42-88-6-4-8-9-5-6-2-4-0-1-6" />
    <path
       style="fill:none;fill-opacity:0.470588;fill-rule:evenodd;stroke:#00ff00;stroke-width:0.225699;stroke-opacity:1;paint-order:fill markers stroke"
       d="M 252.09705,394.2209 V 382.61489"
       id="path42-88-6-4-8-9-5-2-2-9-0-7-0-4" />
    <path
       style="fill:none;fill-opacity:0.470588;fill-rule:evenodd;stroke:#00ff00;stroke-width:0.225659;stroke-opacity:1;paint-order:fill markers stroke"
       d="M 230.92228,394.22103 V 382.61912"
       id="path42-88-6-4-8-9-0-29-8-8-3-9" />
    <path
       style="fill:none;fill-opacity:0.470588;fill-rule:evenodd;stroke:#00ff00;stroke-width:0.225617;stroke-opacity:1;paint-order:fill markers stroke"
       d="M 233.56302,394.22233 V 382.62482"
       id="path42-88-6-4-8-9-8-0-5-3-4-2" />
    <path
       style="fill:none;fill-opacity:0.470588;fill-rule:evenodd;stroke:#00ff00;stroke-width:0.225744;stroke-opacity:1;paint-order:fill markers stroke"
       d="M 196.53335,394.2324 V 382.62173"
       id="path42-88-6-4-8-9-0-8-3-4-9-9" />
    <path
       style="fill:none;fill-opacity:0.470588;fill-rule:evenodd;stroke:#00ff00;stroke-width:0.22564;stroke-opacity:1;paint-order:fill markers stroke"
       d="m 193.89126,394.22784 v -11.5999"
       id="path42-88-6-4-8-9-5-6-9-9-8-3" />
    <path
       style="fill:none;fill-opacity:0.470588;fill-rule:evenodd;stroke:#00ff00;stroke-width:0.22581;stroke-opacity:1;paint-order:fill markers stroke"
       d="M 191.2429,394.22271 V 382.60528"
       id="path42-88-6-4-8-9-5-2-2-1-1-8-4" />
    <path
       style="fill:none;fill-opacity:0.470588;fill-rule:evenodd;stroke:#00ff00;stroke-width:0.225658;stroke-opacity:1;paint-order:fill markers stroke"
       d="m 199.17822,394.22441 v -11.6019"
       id="path42-88-6-4-8-9-8-6-8-2-0-4" />
    <path
       style="fill:none;fill-opacity:0.470588;fill-rule:evenodd;stroke:#00ff00;stroke-width:0.225682;stroke-opacity:1;paint-order:fill markers stroke"
       d="M 178.01506,394.22632 V 382.62203"
       id="path42-88-6-4-8-9-5-2-6-7-6-3-8-0" />
    <path
       style="fill:none;fill-opacity:0.470588;fill-rule:evenodd;stroke:#00ff00;stroke-width:0.225639;stroke-opacity:1;paint-order:fill markers stroke"
       d="M 175.35209,394.21988 V 382.61997"
       id="path42-88-6-4-8-9-5-2-6-7-6-6-7-5" />
  </g>
</svg>
