# Blender 4.2.3 LTS
# www.blender.org
o wall
v -7.997855 10.065283 -0.440785
v -7.997855 0.065286 -0.440785
v 8.001934 10.065283 -0.359205
v 8.001934 0.065286 -0.359205
v -8.001934 10.065283 0.359205
v -8.001934 0.065286 0.359205
v 7.997855 10.065283 0.440785
v 7.997855 0.065286 0.440785
v 3.139440 4.017679 0.416013
v 3.081825 4.797632 0.415719
v 2.911197 5.547615 0.414849
v 2.634111 6.238805 0.413436
v 2.261217 6.844636 0.411535
v 1.806844 7.341827 0.409218
v 1.288453 7.711275 0.406575
v 0.725966 7.938779 0.403707
v 0.137880 8.015597 0.400708
v 0.141000 8.015597 0.400724
v -1.009573 7.711275 0.394858
v -1.982337 6.844636 0.389898
v -1.527964 7.341827 0.392214
v -0.447086 7.938779 0.397726
v 3.139440 0.065286 0.416013
v -2.355231 6.238805 0.387996
v -2.632317 5.547615 0.386584
v -2.860559 4.017679 0.385420
v -2.860559 0.065286 0.385420
v -2.802945 4.797632 0.385714
v 3.139439 0.065286 -0.383998
v -2.860560 0.065286 -0.414591
v 2.261217 6.844636 -0.388476
v 1.806844 7.341827 -0.390792
v 1.288453 7.711275 -0.393436
v 0.725966 7.938779 -0.396304
v -0.447086 7.938779 -0.402285
v 0.137880 8.015597 -0.399302
v 0.141000 8.015597 -0.399286
v -2.860560 4.017679 -0.414591
v -2.802945 4.797632 -0.414297
v -2.632317 5.547615 -0.413427
v -2.355232 6.238805 -0.412014
v -1.982337 6.844636 -0.410113
v -1.527963 7.341827 -0.407796
v -1.009573 7.711275 -0.405153
v 3.139439 4.017679 -0.383998
v 3.081825 4.797632 -0.384292
v 2.911196 5.547615 -0.385162
v 2.634111 6.238805 -0.386574
v -3.369978 0.065286 0.382822
v -7.369978 3.270671 0.362427
v -7.369978 0.065286 0.362427
v -6.602750 4.037898 0.366339
v -4.137206 4.037898 0.378910
v -3.369978 3.270671 0.382822
v -3.369978 0.065286 -0.417188
v -7.369978 0.065286 -0.437583
v -7.369978 3.270671 -0.437583
v -6.602750 4.037898 -0.433671
v -3.369978 3.270671 -0.417188
v -4.137206 4.037898 -0.421100
v 7.588806 3.270671 0.438699
v 7.588806 0.065286 0.438699
v 3.588806 0.065286 0.418304
v 6.821579 4.037899 0.434787
v 4.356034 4.037899 0.422216
v 3.588806 3.270671 0.418304
v 7.588806 0.065286 -0.361311
v 3.588806 0.065286 -0.381707
v 7.588806 3.270671 -0.361311
v 6.821578 4.037899 -0.365223
v 4.356034 4.037899 -0.377795
v 3.588806 3.270671 -0.381707
vn -0.0000 1.0000 -0.0000
vn 1.0000 -0.0000 0.0051
vn -0.0051 -0.0000 1.0000
vn -0.0000 -1.0000 -0.0000
vn 0.0051 -0.0000 -1.0000
vn -1.0000 -0.0000 -0.0051
vn -1.0000 -0.0000 -0.0000
vn 1.0000 -0.0000 -0.0000
vn 0.1302 -0.9915 -0.0000
vn 0.3750 -0.9270 -0.0000
vn 0.5804 -0.8144 -0.0000
vn 0.7382 -0.6746 -0.0000
vn 0.8516 -0.5242 -0.0000
vn 0.9282 -0.3721 -0.0000
vn 0.9751 -0.2218 -0.0000
vn 0.9973 -0.0737 -0.0000
vn -0.1302 -0.9915 -0.0000
vn -0.3750 -0.9270 -0.0000
vn -0.5804 -0.8144 -0.0000
vn -0.7382 -0.6746 -0.0000
vn -0.8516 -0.5242 -0.0000
vn -0.9282 -0.3721 -0.0000
vn -0.9751 -0.2218 -0.0000
vn -0.9973 -0.0737 -0.0000
vn 0.7071 -0.7071 -0.0000
vn -0.7071 -0.7071 -0.0000
vt 0.875000 0.500000
vt 0.625000 0.750000
vt 0.625000 0.500000
vt 0.375000 1.000000
vt 0.375000 0.750000
vt 0.556914 0.096736
vt 0.544484 0.089636
vt 0.625000 0.000000
vt 0.125000 0.674086
vt 0.375000 0.681044
vt 0.125000 0.681108
vt 0.125000 0.743609
vt 0.375000 0.743545
vt 0.125000 0.500000
vt 0.375000 0.509811
vt 0.125000 0.509874
vt 0.375000 0.580271
vt 0.125000 0.572375
vt 0.375000 0.572312
vt 0.556914 0.601093
vt 0.544484 0.593994
vt 0.625000 0.250000
vt 0.375000 0.500000
vt 0.375000 0.250000
vt 0.749935 0.736312
vt 0.750065 0.514083
vt 0.749935 0.514087
vt 0.376553 0.740557
vt 0.500065 0.518340
vt 0.376553 0.518340
vt 0.376553 0.017937
vt 0.500065 0.240168
vt 0.500065 0.017937
vt 0.774439 0.735479
vt 0.750065 0.514083
vt 0.750065 0.736308
vt 0.797876 0.734683
vt 0.774439 0.513254
vt 0.774439 0.735479
vt 0.819475 0.733948
vt 0.797876 0.512457
vt 0.797876 0.734683
vt 0.875000 0.733305
vt 0.819475 0.511723
vt 0.819475 0.733948
vt 0.569475 0.017223
vt 0.625000 0.238920
vt 0.625000 0.016695
vt 0.547876 0.017616
vt 0.569475 0.239448
vt 0.569475 0.017223
vt 0.524439 0.017857
vt 0.547876 0.239841
vt 0.547876 0.017616
vt 0.500065 0.017939
vt 0.524439 0.240083
vt 0.524439 0.017857
vt 0.725561 0.514916
vt 0.725561 0.737141
vt 0.702124 0.515712
vt 0.702124 0.737937
vt 0.680525 0.516447
vt 0.680525 0.738672
vt 0.680525 0.738672
vt 0.625000 0.517090
vt 0.625000 0.739315
vt 0.569475 0.517618
vt 0.569475 0.739843
vt 0.547876 0.518011
vt 0.547876 0.740236
vt 0.524439 0.518252
vt 0.524439 0.740478
vt 0.500065 0.518334
vt 0.500065 0.740559
vt 0.672952 0.516330
vt 0.827048 0.735063
vt 0.827048 0.512838
vt 0.577048 0.517418
vt 0.376712 0.739648
vt 0.577048 0.739648
vt 0.376712 0.016029
vt 0.577048 0.238257
vt 0.577048 0.016029
vt 0.577048 0.016024
vt 0.625000 0.237162
vt 0.625000 0.014937
vt 0.672952 0.738555
vt 0.577048 0.517417
vt 0.577048 0.739642
vt 0.672952 0.521647
vt 0.827048 0.740380
vt 0.827048 0.518155
vt 0.577048 0.744960
vt 0.376712 0.522730
vt 0.376712 0.744961
vt 0.376712 0.010703
vt 0.577048 0.232932
vt 0.577048 0.010703
vt 0.577048 0.010707
vt 0.625000 0.231845
vt 0.625000 0.009620
vt 0.672952 0.743872
vt 0.577048 0.522734
vt 0.577048 0.744959
vt 0.875000 0.750000
vt 0.625000 1.000000
vt 0.455135 0.177625
vt 0.375000 0.177625
vt 0.375000 0.169665
vt 0.473810 0.169665
vt 0.474315 0.189613
vt 0.493309 0.168765
vt 0.474315 0.228137
vt 0.512058 0.166099
vt 0.375000 0.240126
vt 0.455135 0.240126
vt 0.529338 0.161769
vt 0.544484 0.155943
vt 0.375000 0.006391
vt 0.375000 0.000000
vt 0.455135 0.006391
vt 0.556914 0.148843
vt 0.474315 0.018380
vt 0.474315 0.056904
vt 0.566150 0.140743
vt 0.571837 0.131954
vt 0.455135 0.068892
vt 0.375000 0.075914
vt 0.375000 0.068892
vt 0.473810 0.075914
vt 0.573758 0.122814
vt 0.493309 0.076814
vt 0.573758 0.122765
vt 0.571837 0.113625
vt 0.512058 0.079480
vt 0.529338 0.083810
vt 0.566150 0.104836
vt 0.375000 0.674023
vt 0.125000 0.750000
vt 0.125000 0.580335
vt 0.455135 0.681044
vt 0.375000 0.681044
vt 0.375000 0.674022
vt 0.473810 0.674023
vt 0.474315 0.693032
vt 0.493309 0.673122
vt 0.474315 0.731557
vt 0.512058 0.670456
vt 0.375000 0.743545
vt 0.455135 0.743545
vt 0.529338 0.666127
vt 0.544484 0.660300
vt 0.455135 0.509811
vt 0.556914 0.653200
vt 0.474315 0.521799
vt 0.474315 0.560323
vt 0.566150 0.645100
vt 0.571837 0.636312
vt 0.455135 0.572312
vt 0.473810 0.580271
vt 0.573758 0.627171
vt 0.493309 0.581172
vt 0.573758 0.627122
vt 0.571837 0.617982
vt 0.512058 0.583838
vt 0.529338 0.588167
vt 0.566150 0.609193
vt 0.500065 0.740557
vt 0.376553 0.240168
vt 0.797875 0.512458
vt 0.819475 0.511723
vt 0.875000 0.511080
vt 0.569475 0.239448
vt 0.547876 0.239841
vt 0.500065 0.240164
vt 0.569475 0.517618
vt 0.547876 0.518011
vt 0.524439 0.518252
vt 0.672952 0.738555
vt 0.376712 0.517418
vt 0.376712 0.238257
vt 0.577048 0.238249
vt 0.672952 0.743872
vt 0.577048 0.522730
vt 0.376712 0.232932
vt 0.577048 0.232932
s 0
f 5/1/1 3/2/1 1/3/1
f 3/2/2 8/4/2 4/5/2
f 14/6/3 13/7/3 7/8/3
f 23/9/4 68/10/4 63/11/4
f 4/5/4 62/12/4 67/13/4
f 6/14/4 56/15/4 51/16/4
f 30/17/4 49/18/4 55/19/4
f 43/20/5 42/21/5 1/3/5
f 5/22/6 2/23/6 6/24/6
f 18/25/4 36/26/4 37/27/4
f 23/28/7 45/29/7 29/30/7
f 27/31/8 38/32/8 26/33/8
f 22/34/9 36/35/9 17/36/9
f 19/37/10 35/38/10 22/39/10
f 21/40/11 44/41/11 19/42/11
f 20/43/12 43/44/12 21/45/12
f 24/46/13 42/47/13 20/48/13
f 25/49/14 41/50/14 24/51/14
f 28/52/15 40/53/15 25/54/15
f 26/55/16 39/56/16 28/57/16
f 18/25/17 34/58/17 16/59/17
f 16/59/18 33/60/18 15/61/18
f 15/61/19 32/62/19 14/63/19
f 14/64/20 31/65/20 13/66/20
f 48/67/21 13/66/21 31/65/21
f 12/68/22 47/69/22 11/70/22
f 11/70/23 46/71/23 10/72/23
f 10/72/24 45/73/24 9/74/24
f 60/75/4 52/76/4 58/77/4
f 59/78/7 49/79/7 54/80/7
f 51/81/8 57/82/8 50/83/8
f 50/84/25 58/85/25 52/86/25
f 53/87/26 59/88/26 54/89/26
f 70/90/4 65/91/4 71/92/4
f 61/93/7 67/94/7 62/95/7
f 63/96/8 72/97/8 66/98/8
f 66/99/25 71/100/25 65/101/25
f 64/102/26 69/103/26 61/104/26
f 5/1/1 7/105/1 3/2/1
f 3/2/2 7/106/2 8/4/2
f 54/107/3 49/108/3 27/109/3
f 54/107/3 27/109/3 26/110/3
f 53/111/3 54/107/3 26/110/3
f 53/111/3 26/110/3 28/112/3
f 52/113/3 53/111/3 28/112/3
f 52/113/3 28/112/3 25/114/3
f 6/24/3 51/115/3 50/116/3
f 52/113/3 25/114/3 24/117/3
f 5/22/3 6/24/3 50/116/3
f 52/113/3 24/117/3 20/118/3
f 5/22/3 50/116/3 52/113/3
f 62/119/3 8/120/3 7/8/3
f 61/121/3 62/119/3 7/8/3
f 5/22/3 52/113/3 20/118/3
f 5/22/3 20/118/3 21/122/3
f 64/123/3 61/121/3 7/8/3
f 65/124/3 64/123/3 7/8/3
f 5/22/3 21/122/3 19/125/3
f 5/22/3 19/125/3 22/126/3
f 66/127/3 65/124/3 7/8/3
f 23/128/3 63/129/3 66/127/3
f 9/130/3 23/128/3 66/127/3
f 7/8/3 5/22/3 22/126/3
f 7/8/3 22/126/3 17/131/3
f 9/130/3 66/127/3 7/8/3
f 10/132/3 9/130/3 7/8/3
f 7/8/3 17/131/3 18/133/3
f 7/8/3 18/133/3 16/134/3
f 11/135/3 10/132/3 7/8/3
f 12/136/3 11/135/3 7/8/3
f 7/8/3 16/134/3 15/137/3
f 7/8/3 15/137/3 14/6/3
f 13/7/3 12/136/3 7/8/3
f 23/9/4 29/138/4 68/10/4
f 4/5/4 8/139/4 62/12/4
f 6/14/4 2/23/4 56/15/4
f 30/17/4 27/140/4 49/18/4
f 72/141/5 68/142/5 29/143/5
f 72/141/5 29/143/5 45/144/5
f 71/145/5 72/141/5 45/144/5
f 71/145/5 45/144/5 46/146/5
f 70/147/5 71/145/5 46/146/5
f 70/147/5 46/146/5 47/148/5
f 4/5/5 67/149/5 69/150/5
f 70/147/5 47/148/5 48/151/5
f 3/2/5 4/5/5 69/150/5
f 70/147/5 48/151/5 31/152/5
f 3/2/5 69/150/5 70/147/5
f 56/15/5 2/23/5 1/3/5
f 57/153/5 56/15/5 1/3/5
f 3/2/5 70/147/5 31/152/5
f 3/2/5 31/152/5 32/154/5
f 58/155/5 57/153/5 1/3/5
f 60/156/5 58/155/5 1/3/5
f 3/2/5 32/154/5 33/157/5
f 3/2/5 33/157/5 34/158/5
f 59/159/5 60/156/5 1/3/5
f 30/17/5 55/19/5 59/159/5
f 38/160/5 30/17/5 59/159/5
f 1/3/5 3/2/5 34/158/5
f 1/3/5 34/158/5 37/161/5
f 38/160/5 59/159/5 1/3/5
f 39/162/5 38/160/5 1/3/5
f 1/3/5 37/161/5 36/163/5
f 1/3/5 36/163/5 35/164/5
f 40/165/5 39/162/5 1/3/5
f 41/166/5 40/165/5 1/3/5
f 1/3/5 35/164/5 44/167/5
f 1/3/5 44/167/5 43/20/5
f 42/21/5 41/166/5 1/3/5
f 5/22/6 1/3/6 2/23/6
f 18/25/4 17/36/4 36/26/4
f 23/28/7 9/168/7 45/29/7
f 27/31/8 30/169/8 38/32/8
f 22/34/9 35/38/9 36/35/9
f 19/37/10 44/170/10 35/38/10
f 21/40/11 43/171/11 44/41/11
f 20/43/12 42/172/12 43/44/12
f 24/46/13 41/173/13 42/47/13
f 25/49/14 40/174/14 41/50/14
f 28/52/15 39/56/15 40/53/15
f 26/55/16 38/175/16 39/56/16
f 18/25/17 37/27/17 34/58/17
f 16/59/18 34/58/18 33/60/18
f 15/61/19 33/60/19 32/62/19
f 14/64/20 32/62/20 31/65/20
f 48/67/21 12/68/21 13/66/21
f 12/68/22 48/176/22 47/69/22
f 11/70/23 47/177/23 46/71/23
f 10/72/24 46/178/24 45/73/24
f 60/75/4 53/179/4 52/76/4
f 59/78/7 55/180/7 49/79/7
f 51/81/8 56/181/8 57/82/8
f 50/84/25 57/182/25 58/85/25
f 53/87/26 60/75/26 59/88/26
f 70/90/4 64/183/4 65/91/4
f 61/93/7 69/184/7 67/94/7
f 63/96/8 68/185/8 72/97/8
f 66/99/25 72/186/25 71/100/25
f 64/102/26 70/90/26 69/103/26
